<svg id="Layer_1" data-name="Layer 1" xmlns="http://www.w3.org/2000/svg" xmlns:xlink="http://www.w3.org/1999/xlink" viewBox="0 0 263.85 333.51"><defs><linearGradient id="linear-gradient" x1="146.75" y1="94.67" x2="181.51" y2="94.67" gradientUnits="userSpaceOnUse"><stop offset="0" stop-color="#ecc4d7"/><stop offset="0.42" stop-color="#efd4d1"/><stop offset="1" stop-color="#f2eac9"/></linearGradient><linearGradient id="linear-gradient-2" x1="122.99" y1="304.16" x2="307.88" y2="304.16" gradientUnits="userSpaceOnUse"><stop offset="0" stop-opacity="0"/><stop offset="0.91" stop-opacity="0.8"/><stop offset="1"/></linearGradient><linearGradient id="linear-gradient-3" x1="194.24" y1="138.99" x2="254.11" y2="138.99" xlink:href="#linear-gradient-2"/><linearGradient id="linear-gradient-4" x1="223.68" y1="91.34" x2="240.97" y2="91.34" xlink:href="#linear-gradient"/><linearGradient id="linear-gradient-5" x1="254.25" y1="21.21" x2="247.11" y2="68.88" xlink:href="#linear-gradient-2"/><linearGradient id="linear-gradient-6" x1="218.89" y1="60.71" x2="230.43" y2="89" xlink:href="#linear-gradient"/><linearGradient id="linear-gradient-7" x1="215.25" y1="127.48" x2="226.61" y2="127.48" xlink:href="#linear-gradient-2"/><linearGradient id="linear-gradient-8" x1="186.62" y1="69.64" x2="174.37" y2="72.6" xlink:href="#linear-gradient"/><linearGradient id="linear-gradient-9" x1="335.1" y1="22.85" x2="358.92" y2="22.85" xlink:href="#linear-gradient-2"/><linearGradient id="linear-gradient-10" x1="164.76" y1="245.28" x2="215.25" y2="245.28" xlink:href="#linear-gradient-2"/><linearGradient id="linear-gradient-11" x1="162.12" y1="285.4" x2="172.16" y2="285.4" xlink:href="#linear-gradient"/><linearGradient id="linear-gradient-12" x1="259.1" y1="285.87" x2="269.98" y2="285.87" xlink:href="#linear-gradient"/><linearGradient id="linear-gradient-13" x1="147.28" y1="295.55" x2="175.17" y2="295.55" xlink:href="#linear-gradient-2"/><linearGradient id="linear-gradient-14" x1="258.96" y1="295.13" x2="276.89" y2="295.13" xlink:href="#linear-gradient-2"/><linearGradient id="linear-gradient-15" x1="207.49" y1="298.89" x2="210.03" y2="298.94" xlink:href="#linear-gradient-2"/><linearGradient id="linear-gradient-16" x1="111.53" y1="278.32" x2="111.34" y2="283.49" xlink:href="#linear-gradient-2"/><linearGradient id="linear-gradient-17" x1="243.09" y1="73.04" x2="235.51" y2="73.77" xlink:href="#linear-gradient"/><linearGradient id="linear-gradient-18" x1="108.17" y1="314.32" x2="328" y2="314.32" xlink:href="#linear-gradient-2"/><linearGradient id="linear-gradient-19" x1="161.27" y1="101.47" x2="222.98" y2="101.47" xlink:href="#linear-gradient"/></defs><title>73. Golf</title><path d="M111,289.38S83.83,246.75,107.75,201s4-58,2.52-110.29c-.53-18.75,13.87-83.12,91.54-73.28s49.9,38.45,90.44,73.28,62.51,22.16,47.3,90.58S349.38,262,328,286.65,151,355.28,111,289.38Z" transform="translate(-97.9 -8.26)" fill="#30da7b" opacity="0.27" style="isolation:isolate"/><path d="M174.12,69.66S143,92.58,147.14,106s24.54,14.28,24.54,14.28l4.64-11.54s-14.76-.54-15-9.53c-.35-10.94,20.24-26.39,20.24-26.39S179.27,67.27,174.12,69.66Z" transform="translate(-97.9 -8.26)" fill="url(#linear-gradient)"/><path d="M210.88,92s-7.21.2-22,7.18S171.23,106,171.23,106l-1.85,21.39L200.29,124S216.57,94.59,213.48,92,210.88,92,210.88,92Z" transform="translate(-97.9 -8.26)" fill="#30da7b"/><path d="M328,286.86c-5.75,5.37-5.54,14.44-8.84,21.58-4.1,8.88-13.32,14.15-22.31,18-44.54,19.19-95.33,17.8-143.13,9.62-8.41-1.44-16.91-3.12-24.56-6.89-9.93-4.88-18.4-14.45-20.67-25.44-.11-.55-.22-1.12-.32-1.71-.76-4.56-.85-10.12,2.8-12.45,4.18-2.67,18.89-.4,24-.51,2.32-.05,4.77-.06,6.79,1.07,2.27,1.28,3.94,4,6.54,4,2.27.06,4-1.93,5.94-3.09,3.66-2.18,8.25-1.42,12.51-1.32,6.43.14,12.75-1.39,19.11-2.29a199,199,0,0,1,24.78-1.39l21.45-.3L294,284.9C305.38,284.74,316.86,284.59,328,286.86Z" transform="translate(-97.9 -8.26)" fill="#30da7b"/><path d="M129.5,298c-2.78,1.46-4.47,4.33-6,7.06a2.71,2.71,0,0,0-.49,1.45,2.41,2.41,0,0,0,.79,1.46c3.15,3.26,8.2,3.64,12.73,3.41,11.21-.54,22.7-3.46,33.46-.24,2.5.74,4.95,1.82,7.55,2,6.18.48,11.9-4,18.08-3.63,5.36.33,9.8,4.22,15,5.66,4.32,1.2,8.9.63,13.35.14a361.28,361.28,0,0,1,43.25-2.19c7.46.06,15,.35,22.29-1.39s14.32-5.86,17.75-12.49a3.82,3.82,0,0,0,.54-3,3.73,3.73,0,0,0-2.2-1.93c-3.32-1.47-7-1.7-10.65-1.82-6.3-.21-12.59-.17-18.89-.13-6.95.05-14.11.13-20.55,2.75-4.61,1.87-8.85,5-13.81,5.43-3.87.3-7.63-1.13-11.43-1.92-12.72-2.63-26.29,1.92-38.76-1.73-2.7-.79-5.28-2-8-2.77-9.08-2.72-22.53-2.33-31.22,1.61a17.51,17.51,0,0,1-11,1.74C137.42,297.07,133.15,296.09,129.5,298Z" transform="translate(-97.9 -8.26)" opacity="0.25" fill="url(#linear-gradient-2)" style="isolation:isolate"/><path d="M253.72,116.46,249,187.54l-55.12.38,3.93-63.69S201.74,95,213.48,92c6.45-1.64,25.25-4,33.25,1.49C253.3,98,255.93,104.81,253.72,116.46Z" transform="translate(-97.9 -8.26)" fill="#30da7b"/><path d="M254.11,116.43l-4.75,71.08-55.12.38,3.93-63.69S202.12,95,213.86,92c6.42-1.63,25.3-3.92,33.26,1.5C253.73,98,249.57,109.39,254.11,116.43Z" transform="translate(-97.9 -8.26)" opacity="0.25" fill="url(#linear-gradient-3)" style="isolation:isolate"/><path d="M241,79.7s-1.6,6.14-.56,11.17c1.1,5.28-2.61,9-9.35,11.54-6.43,2.38-7.61-1.94-7.35-3.56A41.71,41.71,0,0,1,225,94.06S235.48,78,241,79.7Z" transform="translate(-97.9 -8.26)" fill="url(#linear-gradient-4)"/><path d="M358.4,32.12h0a14.5,14.5,0,0,1-3.74,1c-5.87.93-8.34-7.57-11.43-13.44s-8.13-6.47-8.13-6.47c-154.37,41.54-171.75,69.5-171.75,69.5L137.64,96.23c-3.94.23-2.32-3.74-2.32-3.74l26-13.44,2.47,1.34-1.2-2.26s35.58-21,57.54-30c25.55-10.54,107-36,117.76-38.87S357.91,10,360.69,20C362.79,27.57,361.63,30.66,358.4,32.12Z" transform="translate(-97.9 -8.26)" fill="#30da7b"/><path d="M358.4,32.12h0a14.5,14.5,0,0,1-3.74,1c-5.87.93-8.34-7.57-11.43-13.44s-8.13-6.47-8.13-6.47c-154.37,41.54-171.75,69.5-171.75,69.5L137.64,96.23c-3.94.23-2.32-3.74-2.32-3.74l26-13.44,2.47,1.34-1.2-2.26s35.58-21,57.54-30c25.55-10.54,107-36,117.76-38.87S357.91,10,360.69,20C362.79,27.57,361.63,30.66,358.4,32.12Z" transform="translate(-97.9 -8.26)" opacity="0.25" fill="url(#linear-gradient-5)" style="isolation:isolate"/><path d="M201.94,70.85s8.23,29.09,21.78,26.59,16.33-12.6,17.37-19.31a9.13,9.13,0,0,0,2.9-5.32c.58-3.47-.49-5.09-2-4.39a2.91,2.91,0,0,0-1.61,2.43s-2.25-9.85-3.42-11.24c0,0-11.52-15.85-30.7-4.28C206.22,55.33,200.91,59,201.94,70.85Z" transform="translate(-97.9 -8.26)" fill="url(#linear-gradient-6)"/><path d="M207.61,68.42s-3.13,6.48-6.6,3.82-3.36-5.15-2.44-8.2-3.18-5.7-1-8.83a75.06,75.06,0,0,1,11.56-11.89c3.12-2.36,12.62-3.09,20,0s8.19.54,10.27,2.62a14.36,14.36,0,0,1,3.87,9.27c-.06,3.24-.41,8.83-.41,8.83l.41,4.4s-2.75-.54-2.92,2.88a23.89,23.89,0,0,0,0,4.05S237.5,64.65,235.41,64s-1.39,2.64-5.32,2.52-7.53-1.73-8.46-1.27-4.75,5.5-7.18,4.37S208.33,67.16,207.61,68.42Z" transform="translate(-97.9 -8.26)" fill="#001316"/><path d="M202.32,78.33a1,1,0,0,1,.9-1.35c6.28-.47,33-2.47,34-2.74S240,70.18,240,70.18l0,2.51a11.31,11.31,0,0,0-1.3,3.11c-.06,1,.58,7.7-4.29,8.46s-6.6.23-9.35-2.18-4.37-5.54-7.56-3.16-.29,7.54-5.79,7.65-6.65-1.68-7.61-3.61A42.14,42.14,0,0,1,202.32,78.33Z" transform="translate(-97.9 -8.26)" fill="#001316"/><path d="M243.66,92s5.19.68,9.71,9.92-2.53,28.73-15.54,35.29c-10.18,5.14-11.22,2.66-11.22,2.66l-9.84-24.7S239.88,114.6,243.66,92Z" transform="translate(-97.9 -8.26)" fill="#30da7b"/><path d="M226.61,139.83S223,138,219.08,132s-5.08-16.57-2.31-16.91L223,130.71Z" transform="translate(-97.9 -8.26)" opacity="0.25" fill="url(#linear-gradient-7)" style="isolation:isolate"/><path d="M173.47,72.81s.17-4.74,2.85-5.55,2.82-1.92,5.19-3.22a9.26,9.26,0,0,1,5.29-1.17c1.46,0,3.32,4.91,3.2,6.79s-3.25,5.71-3.25,5.71l-9.26,3.68-2.76-2.83Z" transform="translate(-97.9 -8.26)" fill="url(#linear-gradient-8)"/><path d="M358.4,32.12h0a14.5,14.5,0,0,1-3.74,1c-5.87.93-8.34-7.57-11.43-13.44s-8.13-6.47-8.13-6.47,10.91-2.49,16.32,1.84S360.29,29.42,358.4,32.12Z" transform="translate(-97.9 -8.26)" opacity="0.25" fill="url(#linear-gradient-9)" style="isolation:isolate"/><path d="M263.19,286.17l-.05,0a6.3,6.3,0,0,1-6.86-2.05l-20.36-25.45a75.12,75.12,0,0,1-13.46-26l-7.21-24.95s-27.57,18-38.93,31.41c-8.19,9.68-6.06,28.77-4.23,38.69a5.34,5.34,0,0,1-5.25,6.32H165a5.33,5.33,0,0,1-5.25-4.38c-1.74-9.5-5.47-32.11-4-44.34,1.86-15.76,38.15-47.55,38.15-47.55l55.12-.38s3.12,8.54,2.92,14.57-7.08,22.58-2.92,35.07c3.74,11.25,12.94,30.25,17.9,40.2A6.29,6.29,0,0,1,263.19,286.17Z" transform="translate(-97.9 -8.26)" fill="#30da7b"/><path d="M215.25,207.77s-27.57,18-38.93,31.41c-8.19,9.68-6.06,28.77-4.23,38.69a5.34,5.34,0,0,1-5.25,6.32s-3.25-33.54-1.63-40.15,28.5-33.13,33.83-36.27S215.25,207.77,215.25,207.77Z" transform="translate(-97.9 -8.26)" opacity="0.25" fill="url(#linear-gradient-10)" style="isolation:isolate"/><path d="M162.12,283.35l.85,5.41s6.26,1.7,9.19-1l-.68-6.25S168.61,285.59,162.12,283.35Z" transform="translate(-97.9 -8.26)" fill="url(#linear-gradient-11)"/><path d="M259.1,285.62l2.35,4.94s6.48-.15,8.53-3.57l-2.44-5.8S266,285.91,259.1,285.62Z" transform="translate(-97.9 -8.26)" fill="url(#linear-gradient-12)"/><path d="M172.16,287.76s2.4,1.62,2.4,4.09.61,7.11.61,7.11a33.58,33.58,0,0,1-20.7,4.17c-12.2-1.39-6.17-6-1.54-8.81s10-5.56,10-5.56Z" transform="translate(-97.9 -8.26)" fill="#30da7b"/><path d="M261,289.5s-1,1.81,0,5.17c.54,1.83-.55,4.35-1.66,6.26a2.37,2.37,0,0,0,2,3.57,30,30,0,0,0,5.76-.56c7.65-1.39,9.85-2.89,9.85-5s-1.71-6.43-1.71-6.43-2.15-7.8-5.2-6.66S261,289.5,261,289.5Z" transform="translate(-97.9 -8.26)" fill="#30da7b"/><path d="M172.16,287.76s2.4,1.62,2.4,4.09.61,7.11.61,7.11a33.58,33.58,0,0,1-20.7,4.17c-12.2-1.39-6.17-6-1.54-8.81s10-5.56,10-5.56Z" transform="translate(-97.9 -8.26)" opacity="0.25" fill="url(#linear-gradient-13)" style="isolation:isolate"/><path d="M261,289.5s-1,1.81,0,5.17c.54,1.83-.55,4.35-1.66,6.26a2.37,2.37,0,0,0,2,3.57,30,30,0,0,0,5.76-.56c7.65-1.39,9.85-2.89,9.85-5s-1.71-6.43-1.71-6.43-2.15-7.8-5.2-6.66S261,289.5,261,289.5Z" transform="translate(-97.9 -8.26)" opacity="0.25" fill="url(#linear-gradient-14)" style="isolation:isolate"/><path d="M205,292.39h8.95s-4.1,3.18-3.95,13.14h-1.05S210.67,295.93,205,292.39Z" transform="translate(-97.9 -8.26)" fill="#fff"/><path d="M205,292.39h8.95s-4.1,3.18-3.95,13.14h-1.05S210.67,295.93,205,292.39Z" transform="translate(-97.9 -8.26)" opacity="0.25" fill="url(#linear-gradient-15)" style="isolation:isolate"/><circle cx="111.57" cy="277.14" r="6.83" fill="#fff"/><circle cx="111.57" cy="277.14" r="6.83" opacity="0.25" fill="url(#linear-gradient-16)" style="isolation:isolate"/><path d="M241.26,74.11s.66,0,.56-1.41.17-2.85.67-2.71,1.09,3.17-.81,6.2C241.68,76.19,240.64,77.13,241.26,74.11Z" transform="translate(-97.9 -8.26)" fill="url(#linear-gradient-17)"/><path d="M328,286.86c-5.75,5.37-5.54,14.44-8.84,21.58-4.1,8.88-13.32,14.15-22.31,18-44.54,19.19-95.33,17.8-143.13,9.62-8.41-1.44-16.91-3.12-24.56-6.89-9.93-4.88-18.4-14.45-20.67-25.44-.11-.55-.22-1.12-.32-1.71l2.8-12.45s.24,17.58,17.7,23.7,43.49,9.31,43.49,9.31,66.39.38,76.21,1.42,41.35-4.6,41.35-4.6,22.34-6.76,24.4-22.53C314.12,296.89,316,288.47,328,286.86Z" transform="translate(-97.9 -8.26)" opacity="0.25" fill="url(#linear-gradient-18)" style="isolation:isolate"/><path d="M200.34,127.48S212.86,133,223,130.71l-6.21-15.58S182.09,110,176.32,81.65c0,0,1.17-5.62,2.56-7.3,0,0-2.28-.91-4.15,1.87,0,0-.33-4.24-3.26-4.52s-5.56,2.17-7.26,2.65-2.94,1.56-2.94,2v2.68s2,0,2.47,1.34-2.31,5.08,0,7.64a51.91,51.91,0,0,0,6,5.33S182.72,118.81,200.34,127.48Z" transform="translate(-97.9 -8.26)" fill="url(#linear-gradient-19)"/></svg>